<svg width="148" height="36" viewBox="0 0 148 36" fill="none" xmlns="http://www.w3.org/2000/svg">
<path d="M56.4589 21.066H50.8789L49.8169 24H48.0529L52.7509 11.544H54.6049L59.2849 24H57.5209L56.4589 21.066ZM55.9909 19.788L53.6689 13.38L51.3469 19.788H55.9909ZM65.6589 22.56V24H64.4349C63.4269 24 62.6709 23.76 62.1669 23.28C61.6749 22.8 61.4289 21.996 61.4289 20.868V15.54H59.9529V14.118H61.4289V11.652H63.0849V14.118H65.6409V15.54H63.0849V20.904C63.0849 21.54 63.1989 21.978 63.4269 22.218C63.6669 22.446 64.0749 22.56 64.6509 22.56H65.6589ZM69.2958 16.116C69.6198 15.432 70.0938 14.904 70.7178 14.532C71.3418 14.148 72.0858 13.956 72.9498 13.956V15.738H72.4458C71.5218 15.738 70.7658 15.978 70.1778 16.458C69.5898 16.926 69.2958 17.706 69.2958 18.798V24H67.6578V14.118H69.2958V16.116ZM78.616 13.992C79.576 13.992 80.386 14.232 81.046 14.712C81.718 15.192 82.186 15.834 82.45 16.638V14.118H84.088V24H82.45V21.48C82.186 22.284 81.718 22.926 81.046 23.406C80.386 23.886 79.576 24.126 78.616 24.126C77.74 24.126 76.96 23.922 76.276 23.514C75.592 23.106 75.052 22.524 74.656 21.768C74.272 21 74.08 20.1 74.08 19.068C74.08 18.036 74.272 17.136 74.656 16.368C75.052 15.6 75.592 15.012 76.276 14.604C76.96 14.196 77.74 13.992 78.616 13.992ZM79.084 15.45C78.076 15.45 77.266 15.774 76.654 16.422C76.054 17.058 75.754 17.94 75.754 19.068C75.754 20.196 76.054 21.084 76.654 21.732C77.266 22.368 78.076 22.686 79.084 22.686C79.732 22.686 80.308 22.536 80.812 22.236C81.328 21.936 81.73 21.516 82.018 20.976C82.306 20.424 82.45 19.788 82.45 19.068C82.45 18.348 82.306 17.712 82.018 17.16C81.73 16.608 81.328 16.188 80.812 15.9C80.308 15.6 79.732 15.45 79.084 15.45ZM82.054 11.238L78.22 13.344V12.174L82.054 9.906V11.238ZM89.7909 13.992C90.9069 13.992 91.8009 14.286 92.4729 14.874C93.1569 15.45 93.5709 16.23 93.7149 17.214H92.1489C92.0769 16.626 91.8309 16.146 91.4109 15.774C91.0029 15.39 90.4509 15.198 89.7549 15.198C89.1669 15.198 88.7049 15.342 88.3689 15.63C88.0449 15.906 87.8829 16.284 87.8829 16.764C87.8829 17.124 87.9909 17.418 88.2069 17.646C88.4349 17.862 88.7109 18.03 89.0349 18.15C89.3709 18.258 89.8269 18.378 90.4029 18.51C91.1349 18.678 91.7229 18.852 92.1669 19.032C92.6229 19.2 93.0069 19.476 93.3189 19.86C93.6429 20.244 93.8049 20.76 93.8049 21.408C93.8049 22.212 93.4989 22.866 92.8869 23.37C92.2869 23.874 91.4829 24.126 90.4749 24.126C89.2989 24.126 88.3389 23.844 87.5949 23.28C86.8509 22.716 86.4129 21.93 86.2809 20.922H87.8649C87.9249 21.522 88.1829 22.008 88.6389 22.38C89.1069 22.752 89.7189 22.938 90.4749 22.938C91.0389 22.938 91.4769 22.794 91.7889 22.506C92.1129 22.218 92.2749 21.84 92.2749 21.372C92.2749 20.988 92.1609 20.682 91.9329 20.454C91.7049 20.226 91.4229 20.052 91.0869 19.932C90.7509 19.812 90.2889 19.686 89.7009 19.554C88.9689 19.386 88.3809 19.218 87.9369 19.05C87.5049 18.882 87.1329 18.618 86.8209 18.258C86.5209 17.886 86.3709 17.388 86.3709 16.764C86.3709 15.936 86.6769 15.27 87.2889 14.766C87.9009 14.25 88.7349 13.992 89.7909 13.992Z" fill="#FB292C"/>
<path d="M18.0017 35C27.3917 35 35.0033 27.3888 35.0033 18C35.0033 8.61124 27.3917 1 18.0017 1C8.61164 1 1 8.61124 1 18C1 27.3888 8.61164 35 18.0017 35Z" fill="#FB292C" stroke="#FB292C" stroke-width="1.50681" stroke-linecap="round" stroke-linejoin="round"/>
<path d="M18.0033 11.2004L11.2026 18.0004L18.0033 24.8004" stroke="white" stroke-width="1.50681" stroke-linecap="round" stroke-linejoin="round"/>
<path d="M24.8039 18.001H11.2026Z" fill="white"/>
<path d="M24.8039 18.001H11.2026" stroke="white" stroke-width="1.50681" stroke-linecap="round" stroke-linejoin="round"/>
</svg>
