<svg width="133" height="36" viewBox="0 0 133 36" fill="none" xmlns="http://www.w3.org/2000/svg">
<path d="M9.342 20.706C9.342 21.306 9.198 21.864 8.91 22.38C8.622 22.896 8.184 23.316 7.596 23.64C7.008 23.964 6.282 24.126 5.418 24.126C4.578 24.126 3.828 23.976 3.168 23.676C2.52 23.364 1.998 22.944 1.602 22.416C1.218 21.876 0.996 21.264 0.936 20.58H2.682C2.718 20.94 2.838 21.294 3.042 21.642C3.258 21.978 3.558 22.26 3.942 22.488C4.338 22.704 4.812 22.812 5.364 22.812C6.084 22.812 6.636 22.62 7.02 22.236C7.404 21.852 7.596 21.36 7.596 20.76C7.596 20.244 7.458 19.824 7.182 19.5C6.918 19.176 6.588 18.924 6.192 18.744C5.796 18.552 5.256 18.348 4.572 18.132C3.768 17.868 3.12 17.622 2.628 17.394C2.148 17.154 1.734 16.8 1.386 16.332C1.05 15.864 0.882 15.246 0.882 14.478C0.882 13.818 1.038 13.236 1.35 12.732C1.674 12.228 2.13 11.838 2.718 11.562C3.318 11.286 4.02 11.148 4.824 11.148C6.072 11.148 7.062 11.454 7.794 12.066C8.526 12.666 8.952 13.434 9.072 14.37H7.308C7.212 13.866 6.954 13.422 6.534 13.038C6.114 12.654 5.544 12.462 4.824 12.462C4.164 12.462 3.636 12.636 3.24 12.984C2.844 13.32 2.646 13.8 2.646 14.424C2.646 14.916 2.772 15.318 3.024 15.63C3.288 15.93 3.612 16.17 3.996 16.35C4.38 16.518 4.908 16.71 5.58 16.926C6.396 17.19 7.05 17.442 7.542 17.682C8.046 17.922 8.472 18.288 8.82 18.78C9.168 19.26 9.342 19.902 9.342 20.706ZM11.2565 11.22C11.2565 10.92 11.3585 10.68 11.5625 10.5C11.7665 10.308 12.0365 10.212 12.3725 10.212C12.7085 10.212 12.9785 10.308 13.1825 10.5C13.3865 10.68 13.4885 10.92 13.4885 11.22C13.4885 11.52 13.3865 11.766 13.1825 11.958C12.9785 12.138 12.7085 12.228 12.3725 12.228C12.0365 12.228 11.7665 12.138 11.5625 11.958C11.3585 11.766 11.2565 11.52 11.2565 11.22ZM13.1825 14.118V24H11.5445V14.118H13.1825ZM19.866 13.992C20.826 13.992 21.636 14.232 22.296 14.712C22.968 15.192 23.436 15.834 23.7 16.638V14.118H25.338V24.162C25.338 25.074 25.146 25.884 24.762 26.592C24.378 27.3 23.838 27.852 23.142 28.248C22.446 28.644 21.636 28.842 20.712 28.842C19.38 28.842 18.294 28.518 17.454 27.87C16.614 27.234 16.08 26.37 15.852 25.278H17.472C17.664 25.938 18.024 26.454 18.552 26.826C19.092 27.21 19.782 27.402 20.622 27.402C21.51 27.402 22.242 27.114 22.818 26.538C23.406 25.974 23.7 25.182 23.7 24.162V21.48C23.436 22.284 22.968 22.926 22.296 23.406C21.636 23.886 20.826 24.126 19.866 24.126C18.99 24.126 18.21 23.922 17.526 23.514C16.842 23.106 16.302 22.524 15.906 21.768C15.522 21 15.33 20.1 15.33 19.068C15.33 18.036 15.522 17.136 15.906 16.368C16.302 15.6 16.842 15.012 17.526 14.604C18.21 14.196 18.99 13.992 19.866 13.992ZM20.334 15.45C19.326 15.45 18.516 15.774 17.904 16.422C17.304 17.058 17.004 17.94 17.004 19.068C17.004 20.196 17.304 21.084 17.904 21.732C18.516 22.368 19.326 22.686 20.334 22.686C20.982 22.686 21.558 22.536 22.062 22.236C22.578 21.936 22.98 21.516 23.268 20.976C23.556 20.424 23.7 19.788 23.7 19.068C23.7 18.348 23.556 17.712 23.268 17.16C22.98 16.608 22.578 16.188 22.062 15.9C21.558 15.6 20.982 15.45 20.334 15.45ZM36.7289 14.118V24H35.0909V21.678C34.8389 22.482 34.3889 23.1 33.7409 23.532C33.1049 23.952 32.3609 24.162 31.5089 24.162C30.3689 24.162 29.4449 23.796 28.7369 23.064C28.0289 22.32 27.6749 21.258 27.6749 19.878V14.118H29.3129V19.716C29.3129 20.7 29.5649 21.462 30.0689 22.002C30.5729 22.53 31.2569 22.794 32.1209 22.794C33.0209 22.794 33.7409 22.506 34.2809 21.93C34.8209 21.342 35.0909 20.49 35.0909 19.374V14.118H36.7289ZM39.0651 11.22C39.0651 10.92 39.1671 10.68 39.3711 10.5C39.5751 10.308 39.8451 10.212 40.1811 10.212C40.5171 10.212 40.7871 10.308 40.9911 10.5C41.1951 10.68 41.2971 10.92 41.2971 11.22C41.2971 11.52 41.1951 11.766 40.9911 11.958C40.7871 12.138 40.5171 12.228 40.1811 12.228C39.8451 12.228 39.5751 12.138 39.3711 11.958C39.1671 11.766 39.0651 11.52 39.0651 11.22ZM40.9911 14.118V24H39.3531V14.118H40.9911ZM52.7145 18.51C52.7145 18.858 52.6905 19.158 52.6425 19.41H44.7405C44.7765 20.538 45.0945 21.384 45.6945 21.948C46.3065 22.512 47.0505 22.794 47.9265 22.794C48.7185 22.794 49.3785 22.596 49.9065 22.2C50.4465 21.792 50.7765 21.252 50.8965 20.58H52.6425C52.5225 21.264 52.2525 21.876 51.8325 22.416C51.4245 22.956 50.8905 23.376 50.2305 23.676C49.5705 23.976 48.8265 24.126 47.9985 24.126C47.0505 24.126 46.2105 23.922 45.4785 23.514C44.7465 23.106 44.1705 22.524 43.7505 21.768C43.3425 21 43.1385 20.1 43.1385 19.068C43.1385 18.036 43.3425 17.136 43.7505 16.368C44.1705 15.6 44.7465 15.012 45.4785 14.604C46.2105 14.196 47.0505 13.992 47.9985 13.992C48.9585 13.992 49.7925 14.196 50.5005 14.604C51.2205 15.012 51.7665 15.558 52.1385 16.242C52.5225 16.926 52.7145 17.682 52.7145 18.51ZM51.0585 18.618C51.0945 17.886 50.9745 17.274 50.6985 16.782C50.4225 16.29 50.0445 15.924 49.5645 15.684C49.0845 15.444 48.5625 15.324 47.9985 15.324C47.0985 15.324 46.3425 15.606 45.7305 16.17C45.1185 16.722 44.7885 17.538 44.7405 18.618H51.0585ZM60.059 13.956C61.211 13.956 62.141 14.328 62.849 15.072C63.557 15.804 63.911 16.866 63.911 18.258V24H62.273V18.402C62.273 17.418 62.021 16.662 61.517 16.134C61.013 15.606 60.329 15.342 59.465 15.342C58.565 15.342 57.845 15.636 57.305 16.224C56.765 16.8 56.495 17.646 56.495 18.762V24H54.857V14.118H56.495V16.458C56.747 15.654 57.191 15.036 57.827 14.604C58.475 14.172 59.219 13.956 60.059 13.956ZM71.1394 22.56V24H69.9154C68.9074 24 68.1514 23.76 67.6474 23.28C67.1554 22.8 66.9094 21.996 66.9094 20.868V15.54H65.4334V14.118H66.9094V11.652H68.5654V14.118H71.1214V15.54H68.5654V20.904C68.5654 21.54 68.6794 21.978 68.9074 22.218C69.1474 22.446 69.5554 22.56 70.1314 22.56H71.1394ZM82.2282 18.51C82.2282 18.858 82.2042 19.158 82.1562 19.41H74.2542C74.2902 20.538 74.6082 21.384 75.2082 21.948C75.8202 22.512 76.5642 22.794 77.4402 22.794C78.2322 22.794 78.8922 22.596 79.4202 22.2C79.9602 21.792 80.2902 21.252 80.4102 20.58H82.1562C82.0362 21.264 81.7662 21.876 81.3462 22.416C80.9382 22.956 80.4042 23.376 79.7442 23.676C79.0842 23.976 78.3402 24.126 77.5122 24.126C76.5642 24.126 75.7242 23.922 74.9922 23.514C74.2602 23.106 73.6842 22.524 73.2642 21.768C72.8562 21 72.6522 20.1 72.6522 19.068C72.6522 18.036 72.8562 17.136 73.2642 16.368C73.6842 15.6 74.2602 15.012 74.9922 14.604C75.7242 14.196 76.5642 13.992 77.5122 13.992C78.4722 13.992 79.3062 14.196 80.0142 14.604C80.7342 15.012 81.2802 15.558 81.6522 16.242C82.0362 16.926 82.2282 17.682 82.2282 18.51ZM80.5722 18.618C80.6082 17.886 80.4882 17.274 80.2122 16.782C79.9362 16.29 79.5582 15.924 79.0782 15.684C78.5982 15.444 78.0762 15.324 77.5122 15.324C76.6122 15.324 75.8562 15.606 75.2442 16.17C74.6322 16.722 74.3022 17.538 74.2542 18.618H80.5722Z" fill="#FB292C"/>
<path d="M114.998 35C105.608 35 97.9967 27.3888 97.9967 18C97.9967 8.61124 105.608 1 114.998 1C124.388 1 132 8.61124 132 18C132 27.3888 124.388 35 114.998 35Z" fill="#FB292C" stroke="#FB292C" stroke-width="1.50681" stroke-linecap="round" stroke-linejoin="round"/>
<path d="M114.997 11.2004L121.797 18.0004L114.997 24.8004" stroke="white" stroke-width="1.50681" stroke-linecap="round" stroke-linejoin="round"/>
<path d="M108.196 18.001H121.797Z" fill="white"/>
<path d="M108.196 18.001H121.797" stroke="white" stroke-width="1.50681" stroke-linecap="round" stroke-linejoin="round"/>
</svg>
